<svg width="374" height="75" viewBox="0 0 374 75" fill="none" xmlns="http://www.w3.org/2000/svg">
<path d="M98.38 61V19H118.66C122.14 19 124.89 19.56 126.91 20.68C128.95 21.78 130.4 23.2 131.26 24.94C132.14 26.68 132.58 28.5 132.58 30.4C132.58 32.26 132.25 33.97 131.59 35.53C130.95 37.09 129.74 38.28 127.96 39.1C129.42 39.66 130.59 40.46 131.47 41.5C132.35 42.54 132.98 43.68 133.36 44.92C133.76 46.14 133.96 47.3 133.96 48.4C133.96 49.92 133.7 51.43 133.18 52.93C132.66 54.43 131.83 55.79 130.69 57.01C129.57 58.21 128.08 59.18 126.22 59.92C124.38 60.64 122.12 61 119.44 61H98.38ZM107.86 52.06H119.86C121 52.06 121.9 51.85 122.56 51.43C123.22 51.01 123.68 50.5 123.94 49.9C124.22 49.3 124.36 48.72 124.36 48.16C124.36 47.46 124.2 46.78 123.88 46.12C123.58 45.44 122.99 44.88 122.11 44.44C121.23 44 119.94 43.78 118.24 43.78H107.86V52.06ZM107.86 35.26H117.76C119.56 35.26 120.87 34.93 121.69 34.27C122.51 33.59 122.92 32.68 122.92 31.54C122.92 30.96 122.82 30.39 122.62 29.83C122.42 29.27 122.02 28.81 121.42 28.45C120.82 28.07 119.92 27.88 118.72 27.88H107.86V35.26ZM154.706 61.72C151.666 61.72 149.046 61.08 146.846 59.8C144.666 58.52 142.986 56.68 141.806 54.28C140.646 51.88 140.066 49 140.066 45.64C140.066 42.38 140.656 39.55 141.836 37.15C143.036 34.75 144.726 32.9 146.906 31.6C149.106 30.28 151.706 29.62 154.706 29.62C157.306 29.62 159.646 30.15 161.726 31.21C163.826 32.25 165.486 33.85 166.706 36.01C167.946 38.15 168.566 40.86 168.566 44.14C168.566 44.7 168.556 45.4 168.536 46.24C168.516 47.06 168.446 47.88 168.326 48.7H148.826C148.826 49.8 149.066 50.76 149.546 51.58C150.026 52.38 150.706 53 151.586 53.44C152.466 53.88 153.506 54.1 154.706 54.1C156.266 54.1 157.566 53.85 158.606 53.35C159.666 52.85 160.686 52.02 161.666 50.86L166.826 56.02C165.386 57.76 163.676 59.15 161.696 60.19C159.716 61.21 157.386 61.72 154.706 61.72ZM148.946 41.98H159.986C159.826 40.92 159.516 40.04 159.056 39.34C158.596 38.64 157.986 38.12 157.226 37.78C156.466 37.42 155.546 37.24 154.466 37.24C153.006 37.24 151.776 37.66 150.776 38.5C149.776 39.34 149.166 40.5 148.946 41.98ZM185.878 61.72C183.338 61.72 180.908 61.18 178.588 60.1C176.268 59.02 174.458 57.58 173.158 55.78L178.858 50.98C179.858 52 181.028 52.83 182.368 53.47C183.708 54.09 184.978 54.4 186.178 54.4C187.498 54.4 188.508 54.21 189.208 53.83C189.908 53.43 190.258 52.86 190.258 52.12C190.258 51.68 190.088 51.28 189.748 50.92C189.408 50.56 188.758 50.17 187.798 49.75C186.858 49.31 185.478 48.76 183.658 48.1C180.158 46.84 177.698 45.48 176.278 44.02C174.878 42.56 174.178 40.68 174.178 38.38C174.178 35.76 175.238 33.65 177.358 32.05C179.498 30.43 182.278 29.62 185.698 29.62C188.018 29.62 190.168 30.06 192.148 30.94C194.128 31.82 195.838 33.1 197.278 34.78L191.518 39.52C189.738 37.8 187.738 36.94 185.518 36.94C184.538 36.94 183.728 37.12 183.088 37.48C182.468 37.82 182.158 38.26 182.158 38.8C182.158 39.36 182.538 39.87 183.298 40.33C184.078 40.79 185.558 41.34 187.738 41.98C190.178 42.68 192.168 43.5 193.708 44.44C195.268 45.38 196.408 46.48 197.128 47.74C197.868 49 198.238 50.46 198.238 52.12C198.238 55.12 197.138 57.47 194.938 59.17C192.738 60.87 189.718 61.72 185.878 61.72ZM213.852 61.72C211.192 61.72 209.212 61.02 207.912 59.62C206.632 58.22 205.992 56.1 205.992 53.26V38.26H201.852V30.34H205.992V21.94L214.932 17.68V30.34H221.472V38.26H214.932V52.18C214.932 52.78 215.082 53.24 215.382 53.56C215.702 53.88 216.182 54.04 216.822 54.04C218.362 54.04 220.052 53.64 221.892 52.84L220.872 60.34C219.912 60.78 218.852 61.12 217.692 61.36C216.552 61.6 215.272 61.72 213.852 61.72ZM228.693 61V19H248.973C252.453 19 255.203 19.56 257.223 20.68C259.263 21.78 260.713 23.2 261.573 24.94C262.453 26.68 262.893 28.5 262.893 30.4C262.893 32.26 262.563 33.97 261.903 35.53C261.263 37.09 260.053 38.28 258.273 39.1C259.733 39.66 260.903 40.46 261.783 41.5C262.663 42.54 263.293 43.68 263.673 44.92C264.073 46.14 264.273 47.3 264.273 48.4C264.273 49.92 264.013 51.43 263.493 52.93C262.973 54.43 262.143 55.79 261.003 57.01C259.883 58.21 258.393 59.18 256.533 59.92C254.693 60.64 252.433 61 249.753 61H228.693ZM238.173 52.06H250.173C251.313 52.06 252.213 51.85 252.873 51.43C253.533 51.01 253.993 50.5 254.253 49.9C254.533 49.3 254.673 48.72 254.673 48.16C254.673 47.46 254.513 46.78 254.193 46.12C253.893 45.44 253.303 44.88 252.423 44.44C251.543 44 250.253 43.78 248.553 43.78H238.173V52.06ZM238.173 35.26H248.073C249.873 35.26 251.183 34.93 252.003 34.27C252.823 33.59 253.233 32.68 253.233 31.54C253.233 30.96 253.133 30.39 252.933 29.83C252.733 29.27 252.333 28.81 251.733 28.45C251.133 28.07 250.233 27.88 249.033 27.88H238.173V35.26ZM281.176 61.72C277.796 61.72 275.116 60.83 273.136 59.05C271.176 57.25 270.196 54.84 270.196 51.82C270.196 49.84 270.716 48.1 271.756 46.6C272.816 45.1 274.276 43.94 276.136 43.12C278.016 42.28 280.196 41.86 282.676 41.86C283.916 41.86 285.136 41.96 286.336 42.16C287.556 42.34 288.556 42.6 289.336 42.94V41.2C289.336 39.9 288.886 38.9 287.986 38.2C287.106 37.48 285.856 37.12 284.236 37.12C282.716 37.12 281.156 37.39 279.556 37.93C277.976 38.47 276.296 39.3 274.516 40.42L271.756 33.52C273.656 32.26 275.746 31.3 278.026 30.64C280.326 29.96 282.676 29.62 285.076 29.62C289.496 29.62 292.796 30.63 294.976 32.65C297.176 34.65 298.276 37.66 298.276 41.68V61H289.336V58.78C288.416 59.74 287.256 60.47 285.856 60.97C284.476 61.47 282.916 61.72 281.176 61.72ZM283.516 54.22C284.636 54.22 285.686 54.05 286.666 53.71C287.666 53.35 288.556 52.84 289.336 52.18V49.66C288.596 49.38 287.786 49.17 286.906 49.03C286.026 48.89 285.116 48.82 284.176 48.82C282.556 48.82 281.286 49.08 280.366 49.6C279.466 50.1 279.016 50.82 279.016 51.76C279.016 52.54 279.406 53.15 280.186 53.59C280.966 54.01 282.076 54.22 283.516 54.22ZM306.742 61V30.34H315.742V33.16C316.742 31.98 317.942 31.1 319.342 30.52C320.742 29.92 322.342 29.62 324.142 29.62C327.382 29.62 329.952 30.63 331.852 32.65C333.752 34.67 334.702 37.42 334.702 40.9V61H325.702V45.34C325.702 42.78 325.342 40.97 324.622 39.91C323.922 38.85 322.702 38.32 320.962 38.32C319.142 38.32 317.812 38.87 316.972 39.97C316.152 41.07 315.742 42.82 315.742 45.22V61H306.742ZM343.422 61V21.88L352.422 17.68V37.84L359.982 30.34H370.602L361.182 39.46L372.282 61H362.502L354.462 45.88L352.422 47.74V61H343.422Z" fill="black"/>
<path fill-rule="evenodd" clip-rule="evenodd" d="M45 1L1 74H89L45 1ZM14.6082 65.8889L45 16.7716L59.0619 65.8889H14.6082Z" fill="black" stroke="black"/>
</svg>
